<svg xmlns="http://www.w3.org/2000/svg" width="480" height="60" viewBox="0 0 480 60" fill="none">
  <path d="M0 0.795455H10.6534L29.1761 46.0227H29.858L48.3807 0.795455H59.0341V58.9773H50.6818V16.875H50.142L32.983 58.892H26.0511L8.89205 16.8466H8.35227V58.9773H0V0.795455Z" fill="black"/>
  <path d="M130.337 29.8864C130.337 36.0985 129.2 41.4394 126.928 45.9091C124.655 50.3598 121.539 53.7879 117.581 56.1932C113.642 58.5795 109.162 59.7727 104.143 59.7727C99.1056 59.7727 94.6075 58.5795 90.6491 56.1932C86.7098 53.7879 83.6037 50.3504 81.331 45.8807C79.0582 41.411 77.9219 36.0795 77.9219 29.8864C77.9219 23.6742 79.0582 18.3428 81.331 13.892C83.6037 9.42235 86.7098 5.99432 90.6491 3.60795C94.6075 1.20265 99.1056 0 104.143 0C109.162 0 113.642 1.20265 117.581 3.60795C121.539 5.99432 124.655 9.42235 126.928 13.892C129.2 18.3428 130.337 23.6742 130.337 29.8864ZM121.643 29.8864C121.643 25.1515 120.876 21.1648 119.342 17.9261C117.827 14.6686 115.744 12.2064 113.092 10.5398C110.46 8.85417 107.477 8.01136 104.143 8.01136C100.791 8.01136 97.7988 8.85417 95.1662 10.5398C92.5336 12.2064 90.4503 14.6686 88.9162 17.9261C87.401 21.1648 86.6435 25.1515 86.6435 29.8864C86.6435 34.6212 87.401 38.6174 88.9162 41.875C90.4503 45.1136 92.5336 47.5758 95.1662 49.2614C97.7988 50.928 100.791 51.7614 104.143 51.7614C107.477 51.7614 110.46 50.928 113.092 49.2614C115.744 47.5758 117.827 45.1136 119.342 41.875C120.876 38.6174 121.643 34.6212 121.643 29.8864Z" fill="black"/>
  <path d="M196.241 0.795455V58.9773H188.173L158.599 16.3068H158.06V58.9773H149.281V0.795455H157.406L187.009 43.5227H187.548V0.795455H196.241Z" fill="black"/>
  <path d="M239.661 0.795455H248.411V42.0455C248.411 45.7765 247.672 48.9678 246.195 51.6193C244.736 54.2708 242.681 56.2973 240.03 57.6989C237.378 59.0814 234.272 59.7727 230.712 59.7727C227.435 59.7727 224.49 59.1761 221.876 57.983C219.282 56.7898 217.227 55.0568 215.712 52.7841C214.215 50.4924 213.467 47.7083 213.467 44.4318H222.189C222.189 46.0417 222.558 47.4337 223.297 48.608C224.054 49.7822 225.087 50.7008 226.393 51.3636C227.719 52.0076 229.234 52.3295 230.939 52.3295C232.795 52.3295 234.367 51.9413 235.655 51.1648C236.962 50.3693 237.956 49.2045 238.638 47.6705C239.32 46.1364 239.661 44.2614 239.661 42.0455V0.795455Z" fill="black"/>
  <path d="M269.188 58.9773V0.795455H305.665V8.35227H277.966V26.0795H303.761V33.608H277.966V51.4205H306.006V58.9773H269.188Z" fill="black"/>
  <path d="M325.391 58.9773V0.795455H334.169V51.4205H360.533V58.9773H325.391Z" fill="black"/>
  <path d="M378.547 58.9773V0.795455H387.325V51.4205H413.689V58.9773H378.547Z" fill="black"/>
  <path d="M479.977 29.8864C479.977 36.0985 478.841 41.4394 476.568 45.9091C474.295 50.3598 471.18 53.7879 467.222 56.1932C463.282 58.5795 458.803 59.7727 453.784 59.7727C448.746 59.7727 444.248 58.5795 440.29 56.1932C436.35 53.7879 433.244 50.3504 430.972 45.8807C428.699 41.411 427.562 36.0795 427.562 29.8864C427.562 23.6742 428.699 18.3428 430.972 13.892C433.244 9.42235 436.35 5.99432 440.29 3.60795C444.248 1.20265 448.746 0 453.784 0C458.803 0 463.282 1.20265 467.222 3.60795C471.18 5.99432 474.295 9.42235 476.568 13.892C478.841 18.3428 479.977 23.6742 479.977 29.8864ZM471.284 29.8864C471.284 25.1515 470.517 21.1648 468.983 17.9261C467.468 14.6686 465.384 12.2064 462.733 10.5398C460.1 8.85417 457.117 8.01136 453.784 8.01136C450.432 8.01136 447.439 8.85417 444.807 10.5398C442.174 12.2064 440.091 14.6686 438.557 17.9261C437.042 21.1648 436.284 25.1515 436.284 29.8864C436.284 34.6212 437.042 38.6174 438.557 41.875C440.091 45.1136 442.174 47.5758 444.807 49.2614C447.439 50.928 450.432 51.7614 453.784 51.7614C457.117 51.7614 460.1 50.928 462.733 49.2614C465.384 47.5758 467.468 45.1136 468.983 41.875C470.517 38.6174 471.284 34.6212 471.284 29.8864Z" fill="black"/>
</svg>
