<svg xmlns="http://www.w3.org/2000/svg" width="431" height="60" viewBox="0 0 431 60" fill="none">
  <path d="M26.1932 0H34.9432V41.25C34.9432 44.9811 34.2045 48.1723 32.7273 50.8239C31.2689 53.4754 29.214 55.5019 26.5625 56.9034C23.911 58.286 20.8049 58.9773 17.2443 58.9773C13.9678 58.9773 11.0227 58.3807 8.40909 57.1875C5.81439 55.9943 3.75947 54.2614 2.24432 51.9886C0.748106 49.697 0 46.9129 0 43.6364H8.72159C8.72159 45.2462 9.09091 46.6383 9.82955 47.8125C10.5871 48.9867 11.6193 49.9053 12.9261 50.5682C14.2519 51.2121 15.767 51.5341 17.4716 51.5341C19.3277 51.5341 20.8996 51.1458 22.1875 50.3693C23.4943 49.5739 24.4886 48.4091 25.1705 46.875C25.8523 45.3409 26.1932 43.4659 26.1932 41.25V0Z" fill="white"/>
  <path d="M73.8452 59.0625C69.5459 59.0625 65.8433 58.1439 62.7372 56.3068C59.6501 54.4508 57.2637 51.8466 55.5781 48.4943C53.9115 45.1231 53.0781 41.1742 53.0781 36.6477C53.0781 32.178 53.9115 28.2386 55.5781 24.8295C57.2637 21.4205 59.6122 18.7595 62.6236 16.8466C65.6539 14.9337 69.1956 13.9773 73.2486 13.9773C75.7107 13.9773 78.0971 14.3845 80.4077 15.1989C82.7183 16.0133 84.7921 17.2917 86.6293 19.0341C88.4664 20.7765 89.9152 23.0398 90.9759 25.8239C92.0365 28.589 92.5668 31.9508 92.5668 35.9091V38.9205H57.8793V32.5568H84.2429C84.2429 30.322 83.7884 28.3428 82.8793 26.6193C81.9702 24.8769 80.6918 23.5038 79.044 22.5C77.4152 21.4962 75.5024 20.9943 73.3054 20.9943C70.919 20.9943 68.8357 21.5814 67.0554 22.7557C65.294 23.911 63.9304 25.4261 62.9645 27.3011C62.0175 29.1572 61.544 31.1742 61.544 33.3523V38.3239C61.544 41.2405 62.0554 43.7216 63.0781 45.767C64.1198 47.8125 65.5687 49.375 67.4247 50.4545C69.2808 51.5152 71.4493 52.0455 73.9304 52.0455C75.5402 52.0455 77.0081 51.8182 78.3338 51.3636C79.6596 50.8902 80.8054 50.1894 81.7713 49.2614C82.7372 48.3333 83.4759 47.1875 83.9872 45.8239L92.027 47.2727C91.3831 49.6402 90.2277 51.714 88.5611 53.4943C86.9134 55.2557 84.8395 56.6288 82.3395 57.6136C79.8584 58.5795 77.027 59.0625 73.8452 59.0625Z" fill="white"/>
  <path d="M118.486 0V58.1818H109.991V0H118.486Z" fill="white"/>
  <path d="M146.408 0V58.1818H137.913V0H146.408Z" fill="white"/>
  <path d="M184.216 59.0625C180.125 59.0625 176.555 58.125 173.506 56.25C170.456 54.375 168.089 51.7519 166.403 48.3807C164.718 45.0095 163.875 41.0701 163.875 36.5625C163.875 32.036 164.718 28.0777 166.403 24.6875C168.089 21.2973 170.456 18.6648 173.506 16.7898C176.555 14.9148 180.125 13.9773 184.216 13.9773C188.307 13.9773 191.877 14.9148 194.926 16.7898C197.975 18.6648 200.343 21.2973 202.028 24.6875C203.714 28.0777 204.557 32.036 204.557 36.5625C204.557 41.0701 203.714 45.0095 202.028 48.3807C200.343 51.7519 197.975 54.375 194.926 56.25C191.877 58.125 188.307 59.0625 184.216 59.0625ZM184.244 51.9318C186.896 51.9318 189.093 51.2311 190.835 49.8295C192.578 48.428 193.866 46.5625 194.699 44.233C195.551 41.9034 195.977 39.3371 195.977 36.5341C195.977 33.75 195.551 31.1932 194.699 28.8636C193.866 26.5152 192.578 24.6307 190.835 23.2102C189.093 21.7898 186.896 21.0795 184.244 21.0795C181.574 21.0795 179.358 21.7898 177.597 23.2102C175.854 24.6307 174.557 26.5152 173.705 28.8636C172.871 31.1932 172.455 33.75 172.455 36.5341C172.455 39.3371 172.871 41.9034 173.705 44.233C174.557 46.5625 175.854 48.428 177.597 49.8295C179.358 51.2311 181.574 51.9318 184.244 51.9318Z" fill="white"/>
  <path d="M222.72 58.1818V0H231.214V21.6193H231.726C232.218 20.7102 232.929 19.6591 233.857 18.4659C234.785 17.2727 236.072 16.2311 237.72 15.3409C239.368 14.4318 241.546 13.9773 244.254 13.9773C247.777 13.9773 250.921 14.8674 253.686 16.6477C256.451 18.428 258.62 20.9943 260.192 24.3466C261.783 27.6989 262.578 31.733 262.578 36.4489C262.578 41.1648 261.792 45.2083 260.22 48.5795C258.648 51.9318 256.489 54.517 253.743 56.3352C250.997 58.1345 247.862 59.0341 244.339 59.0341C241.688 59.0341 239.519 58.589 237.834 57.6989C236.167 56.8087 234.86 55.767 233.913 54.5739C232.966 53.3807 232.237 52.3201 231.726 51.392H231.016V58.1818H222.72ZM231.044 36.3636C231.044 39.4318 231.489 42.1212 232.379 44.4318C233.269 46.7424 234.557 48.5511 236.243 49.858C237.929 51.1458 239.993 51.7898 242.436 51.7898C244.974 51.7898 247.095 51.1174 248.8 49.7727C250.504 48.4091 251.792 46.5625 252.663 44.233C253.553 41.9034 253.999 39.2803 253.999 36.3636C253.999 33.4848 253.563 30.8996 252.692 28.608C251.839 26.3163 250.552 24.5076 248.828 23.1818C247.124 21.8561 244.993 21.1932 242.436 21.1932C239.974 21.1932 237.891 21.8277 236.186 23.0966C234.5 24.3655 233.222 26.1364 232.351 28.4091C231.48 30.6818 231.044 33.3333 231.044 36.3636Z" fill="white"/>
  <path d="M298.923 59.0625C294.624 59.0625 290.921 58.1439 287.815 56.3068C284.728 54.4508 282.342 51.8466 280.656 48.4943C278.99 45.1231 278.156 41.1742 278.156 36.6477C278.156 32.178 278.99 28.2386 280.656 24.8295C282.342 21.4205 284.69 18.7595 287.702 16.8466C290.732 14.9337 294.274 13.9773 298.327 13.9773C300.789 13.9773 303.175 14.3845 305.486 15.1989C307.796 16.0133 309.87 17.2917 311.707 19.0341C313.545 20.7765 314.993 23.0398 316.054 25.8239C317.115 28.589 317.645 31.9508 317.645 35.9091V38.9205H282.957V32.5568H309.321C309.321 30.322 308.866 28.3428 307.957 26.6193C307.048 24.8769 305.77 23.5038 304.122 22.5C302.493 21.4962 300.58 20.9943 298.384 20.9943C295.997 20.9943 293.914 21.5814 292.134 22.7557C290.372 23.911 289.009 25.4261 288.043 27.3011C287.096 29.1572 286.622 31.1742 286.622 33.3523V38.3239C286.622 41.2405 287.134 43.7216 288.156 45.767C289.198 47.8125 290.647 49.375 292.503 50.4545C294.359 51.5152 296.527 52.0455 299.009 52.0455C300.618 52.0455 302.086 51.8182 303.412 51.3636C304.738 50.8902 305.884 50.1894 306.849 49.2614C307.815 48.3333 308.554 47.1875 309.065 45.8239L317.105 47.2727C316.461 49.6402 315.306 51.714 313.639 53.4943C311.991 55.2557 309.918 56.6288 307.418 57.6136C304.937 58.5795 302.105 59.0625 298.923 59.0625Z" fill="white"/>
  <path d="M335.751 58.1818V0H344.246V21.6193H344.757C345.25 20.7102 345.96 19.6591 346.888 18.4659C347.816 17.2727 349.104 16.2311 350.751 15.3409C352.399 14.4318 354.577 13.9773 357.286 13.9773C360.808 13.9773 363.952 14.8674 366.717 16.6477C369.482 18.428 371.651 20.9943 373.223 24.3466C374.814 27.6989 375.609 31.733 375.609 36.4489C375.609 41.1648 374.823 45.2083 373.251 48.5795C371.679 51.9318 369.52 54.517 366.774 56.3352C364.028 58.1345 360.893 59.0341 357.371 59.0341C354.719 59.0341 352.551 58.589 350.865 57.6989C349.198 56.8087 347.892 55.767 346.945 54.5739C345.998 53.3807 345.268 52.3201 344.757 51.392H344.047V58.1818H335.751ZM344.075 36.3636C344.075 39.4318 344.52 42.1212 345.411 44.4318C346.301 46.7424 347.589 48.5511 349.274 49.858C350.96 51.1458 353.024 51.7898 355.467 51.7898C358.005 51.7898 360.126 51.1174 361.831 49.7727C363.536 48.4091 364.823 46.5625 365.695 44.233C366.585 41.9034 367.03 39.2803 367.03 36.3636C367.03 33.4848 366.594 30.8996 365.723 28.608C364.871 26.3163 363.583 24.5076 361.859 23.1818C360.155 21.8561 358.024 21.1932 355.467 21.1932C353.005 21.1932 350.922 21.8277 349.217 23.0966C347.532 24.3655 346.253 26.1364 345.382 28.4091C344.511 30.6818 344.075 33.3333 344.075 36.3636Z" fill="white"/>
  <path d="M411.955 59.0625C407.655 59.0625 403.953 58.1439 400.847 56.3068C397.759 54.4508 395.373 51.8466 393.688 48.4943C392.021 45.1231 391.188 41.1742 391.188 36.6477C391.188 32.178 392.021 28.2386 393.688 24.8295C395.373 21.4205 397.722 18.7595 400.733 16.8466C403.763 14.9337 407.305 13.9773 411.358 13.9773C413.82 13.9773 416.206 14.3845 418.517 15.1989C420.828 16.0133 422.902 17.2917 424.739 19.0341C426.576 20.7765 428.025 23.0398 429.085 25.8239C430.146 28.589 430.676 31.9508 430.676 35.9091V38.9205H395.989V32.5568H422.352C422.352 30.322 421.898 28.3428 420.989 26.6193C420.08 24.8769 418.801 23.5038 417.153 22.5C415.525 21.4962 413.612 20.9943 411.415 20.9943C409.028 20.9943 406.945 21.5814 405.165 22.7557C403.403 23.911 402.04 25.4261 401.074 27.3011C400.127 29.1572 399.653 31.1742 399.653 33.3523V38.3239C399.653 41.2405 400.165 43.7216 401.188 45.767C402.229 47.8125 403.678 49.375 405.534 50.4545C407.39 51.5152 409.559 52.0455 412.04 52.0455C413.65 52.0455 415.117 51.8182 416.443 51.3636C417.769 50.8902 418.915 50.1894 419.881 49.2614C420.847 48.3333 421.585 47.1875 422.097 45.8239L430.136 47.2727C429.492 49.6402 428.337 51.714 426.67 53.4943C425.023 55.2557 422.949 56.6288 420.449 57.6136C417.968 58.5795 415.136 59.0625 411.955 59.0625Z" fill="white"/>
</svg>
