<svg width="319" height="70" viewBox="0 0 319 70" fill="none" xmlns="http://www.w3.org/2000/svg">
<rect x="0.5" y="0.5" width="318" height="69" rx="34.5" stroke="black"/>
<circle cx="284" cy="35" r="32" fill="black"/>
<path d="M292.858 34.0619C292.941 34.1451 293.009 34.2378 293.061 34.3367C293.078 34.3697 293.094 34.4033 293.108 34.4375C293.177 34.6082 293.203 34.7926 293.185 34.9734C293.182 35.0097 293.176 35.0459 293.17 35.0818C293.128 35.2967 293.024 35.5023 292.857 35.6687L280.254 48.2717C279.811 48.7151 279.092 48.7151 278.648 48.2717C278.205 47.828 278.204 47.1086 278.648 46.6648L290.446 34.8663L278.647 23.0672C278.203 22.6231 278.204 21.9029 278.648 21.4589C279.092 21.0152 279.811 21.0152 280.255 21.4589L292.858 34.0619Z" fill="white"/>
<path d="M111.944 22H113.534V48.79H111.944V22ZM104.294 32.26H112.424V33.61H104.294V32.26ZM92.8935 24.13H94.5135V31.39H103.244V24.13H104.834V41.8H92.8935V24.13ZM94.5135 32.71V40.42H103.244V32.71H94.5135Z" fill="black"/>
<path d="M119.351 37.06H143.501V38.41H119.351V37.06ZM122.591 46.72H140.921V48.1H122.591V46.72ZM122.591 40.75H124.211V47.2H122.591V40.75ZM122.651 32.71H140.501V34.06H122.651V32.71ZM122.651 23.08H140.411V24.43H124.271V33.16H122.651V23.08ZM123.731 27.85H139.661V29.17H123.731V27.85Z" fill="black"/>
<path d="M159.609 26.62H167.889V28H159.609V26.62ZM159.609 31.93H167.889V33.25H159.609V31.93ZM167.109 22.03H168.729V37.96H167.109V22.03ZM148.299 24.1H160.209V35.74H148.299V24.1ZM158.649 25.45H149.829V34.42H158.649V25.45ZM160.089 38.77C162.809 38.77 164.949 39.21 166.509 40.09C168.069 40.97 168.849 42.19 168.849 43.75C168.849 45.31 168.069 46.52 166.509 47.38C164.949 48.24 162.809 48.67 160.089 48.67C157.369 48.67 155.229 48.24 153.669 47.38C152.109 46.52 151.329 45.31 151.329 43.75C151.329 42.19 152.109 40.97 153.669 40.09C155.229 39.21 157.369 38.77 160.089 38.77ZM160.089 40.09C158.629 40.09 157.359 40.24 156.279 40.54C155.219 40.84 154.389 41.27 153.789 41.83C153.189 42.37 152.889 43.01 152.889 43.75C152.889 44.49 153.189 45.13 153.789 45.67C154.389 46.21 155.219 46.62 156.279 46.9C157.359 47.2 158.629 47.35 160.089 47.35C161.549 47.35 162.809 47.2 163.869 46.9C164.949 46.62 165.779 46.21 166.359 45.67C166.959 45.13 167.259 44.49 167.259 43.75C167.259 43.01 166.959 42.37 166.359 41.83C165.779 41.27 164.949 40.84 163.869 40.54C162.809 40.24 161.549 40.09 160.089 40.09Z" fill="black"/>
</svg>
